<svg id="Layer_1" data-name="Layer 1" xmlns="http://www.w3.org/2000/svg" viewBox="0 0 901.189 565.967">
  <g id="Layer_8" data-name="Layer 8">
    <path d="M73.286,565.967a60.909,60.909,0,0,1-57.358-40.26C-2.756,473.66-19.216,377.249,53.935,272.965c80.884-115.307,242.691-234.511,356.5-246.722C588.736,7.121,638.573,215.005,718.575,263.38c69.12,41.8,169.22,104.471,182.3,235.463a61.019,61.019,0,0,1-54.611,66.815q-3.027.3-6.072.306Z" fill="#f3f5fd"></path>
  </g>
  <g>
    <g>
      <path d="M567.072,465.038H310.335a4.555,4.555,0,0,1-4.442-3.548L260.359,260.505a4.554,4.554,0,0,1,4.44-5.56H612.606a4.554,4.554,0,0,1,4.441,5.56L571.512,461.49A4.551,4.551,0,0,1,567.072,465.038Zm-253.1-9.107H563.434l43.472-191.879H270.5Z" fill="#c1d8ed"></path>
      <path d="M315.6,465.038a4.555,4.555,0,0,1-4.554-4.554V259.5a4.554,4.554,0,1,1,9.108,0V460.484A4.554,4.554,0,0,1,315.6,465.038Z" fill="#c1d8ed"></path>
      <path d="M377.2,465.038a4.554,4.554,0,0,1-4.554-4.554V259.5a4.554,4.554,0,1,1,9.107,0V460.484A4.554,4.554,0,0,1,377.2,465.038Z" fill="#c1d8ed"></path>
      <path d="M438.8,465.038a4.554,4.554,0,0,1-4.553-4.554V259.5a4.554,4.554,0,1,1,9.107,0V460.484A4.554,4.554,0,0,1,438.8,465.038Z" fill="#c1d8ed"></path>
      <path d="M500.4,465.038a4.554,4.554,0,0,1-4.554-4.554V259.5a4.554,4.554,0,1,1,9.108,0V460.484A4.554,4.554,0,0,1,500.4,465.038Z" fill="#c1d8ed"></path>
      <path d="M562,465.038a4.554,4.554,0,0,1-4.554-4.554V259.5a4.554,4.554,0,1,1,9.107,0V460.484A4.554,4.554,0,0,1,562,465.038Z" fill="#c1d8ed"></path>
      <path d="M589.153,365.456H290.3a4.554,4.554,0,0,1,0-9.107H589.153a4.554,4.554,0,1,1,0,9.107Z" fill="#c1d8ed"></path>
      <path d="M576.831,416.653H300.575a4.554,4.554,0,1,1,0-9.107H576.831a4.554,4.554,0,0,1,0,9.107Z" fill="#c1d8ed"></path>
      <path d="M601.627,314.338H276.709a4.554,4.554,0,1,1,0-9.107H601.627a4.554,4.554,0,0,1,0,9.107Z" fill="#c1d8ed"></path>
    </g>
    <path d="M565.567,535.6H315.6c-17.974,0-36.111-12.207-36.111-39.477,0-29.258,28.134-39.509,29.331-39.931a4.553,4.553,0,0,1,3.031,8.587c-1.056.381-23.255,8.665-23.255,31.344,0,22.416,14.547,30.369,27,30.369H565.567a4.554,4.554,0,1,1,0,9.108Z" fill="#c1d8ed"></path>
    <g>
      <circle cx="347.831" cy="548.506" r="17.462" fill="#c1d8ed"></circle>
      <circle cx="529.575" cy="548.506" r="17.462" fill="#c1d8ed"></circle>
    </g>
    <path d="M264.8,264.053a4.557,4.557,0,0,1-4.411-3.432l-20.578-80.944-68.025-5.442a4.553,4.553,0,1,1,.726-9.078l71.273,5.7a4.556,4.556,0,0,1,4.05,3.417l21.381,84.1a4.556,4.556,0,0,1-4.416,5.676Z" fill="#c1d8ed"></path>
  </g>
  <g>
    <g>
      <path d="M146.664,499.706c-9.579-2.75-16.79-11.32-19.654-20.864s-1.855-19.9.943-29.466c2.283-7.8,5.744-15.35,6.6-23.437,2.839-26.93-23.281-54.444-10.989-78.573,3.975-7.8,11.666-13.9,13.039-22.549,1.136-7.152-2.388-14.1-4.14-21.129-2.41-9.671-1.188-20.644,5.085-28.388s18.13-11.127,26.775-6.168c11.307,6.486,12.288,22.5,9.382,35.207s-8.292,25.78-4.741,38.322c3.384,11.955,14.4,20.957,16.372,33.223,1.642,10.2-3.336,20.14-5.523,30.235-3.438,15.865.061,32.311.211,48.543S175.589,489.1,146.664,499.706Z" fill="#8ddbe0"></path>
      <path d="M131.882,501.247a33.7,33.7,0,0,1-22.79-25.275c-1.874-9.659.427-20.508-4.859-28.807-7.164-11.244-14.509-12.515-23.427-22.426C67.093,409.5,66.611,402.751,67.515,374.526c.383-11.936-16.1-25.406-10.294-36.873C62.335,327.548,77.88,327.5,86.7,334.606s12.687,18.507,16.528,29.16,8.683,21.925,18.42,27.708c5.839,3.468,13.483,5.07,16.709,11.047,2.592,4.8,1.286,10.664.244,16.02-2.618,13.465-1.962,29.891,9.338,37.667,5.1,3.509,11.775,4.717,15.966,9.271,4.144,4.5,4.811,11.173,4.531,17.286a76.961,76.961,0,0,1-9.465,33.526" fill="#dee8f5"></path>
      <path d="M145.509,510.625c-10.174-11.624-11.612-30.039-3.367-43.1,6.917-10.961,19.809-18.509,22.517-31.185,2.411-11.289-4.276-22.955-2.274-34.324,2.176-12.363,13.6-20.475,22.67-29.151a31.6,31.6,0,0,0,6.024-7.274c3.99-7.182,2.877-15.991,4.232-24.094,2.594-15.518,15.379-29.282,30.9-31.847,13.614-2.25,23.366,5.57,23.366,19.974,0,17.063-12.782,24.374-19.3,32.1A60,60,0,0,0,216.294,401.7c.459,16.289,7.395,33.632-.015,48.145C210.842,460.5,199.226,466.174,190.1,473.9a66.542,66.542,0,0,0-23.176,47.446" fill="#fff"></path>
    </g>
    <rect x="107.321" y="483.872" width="82.095" height="82.095" fill="#534CC5"></rect>
    <g opacity="0.42">
      <rect x="107.321" y="499.879" width="82.095" height="16.024" fill="#fff"></rect>
    </g>
  </g>
  <g>
    <circle cx="599.541" cy="101.468" r="101.468" fill="#dee8f5"></circle>
    <g>
      <path d="M611.772,77.1a20.94,20.94,0,1,1,20.939-20.94A20.964,20.964,0,0,1,611.772,77.1Zm0-36.711a15.771,15.771,0,1,0,15.77,15.771A15.788,15.788,0,0,0,611.772,40.393Z" fill="#534CC5"></path>
      <g opacity="0.12">
        <path d="M611.771,77.1a20.94,20.94,0,1,1,20.94-20.94A20.963,20.963,0,0,1,611.771,77.1Zm0-36.711a15.771,15.771,0,1,0,15.771,15.771A15.788,15.788,0,0,0,611.771,40.393Z"></path>
      </g>
      <rect x="566.893" y="56.434" width="89.756" height="102.1" fill="#534CC5"></rect>
      <g opacity="0.12">
        <rect x="566.893" y="56.434" width="89.756" height="102.1"></rect>
      </g>
      <rect x="542.432" y="56.434" width="89.756" height="102.1" fill="#534CC5"></rect>
      <path d="M587.31,77.1a20.94,20.94,0,1,1,20.94-20.94A20.964,20.964,0,0,1,587.31,77.1Zm0-36.711a15.771,15.771,0,1,0,15.77,15.771A15.788,15.788,0,0,0,587.31,40.393Z" fill="#534CC5"></path>
    </g>
  </g>
  <path d="M802.578,565.967H641.909c-11.786-9.406-12.6-30.6-.383-40.061,9.416-7.293,23.651-5.342,32.5,2.244a31.384,31.384,0,0,1-.094-17.312c2.878-10.2,9.274-20.568,19.042-24.694,24.925-10.517,42.635,11.518,46.184,23.839,6.381-9.385,20.658-14.344,29.618-8.027,11.351,8,10.837,20.616,1.782,29.67,12.064-2.249,21.15-.514,29.518,8.467C806.447,546.93,807.422,558.58,802.578,565.967Z" fill="#c1d8ed"></path>
</svg>